<svg width="50" height="54" viewBox="0 0 50 54" fill="none" xmlns="http://www.w3.org/2000/svg">
<path d="M44.9668 0H5.03375C2.25763 0 0 2.24251 0 5.00003V44.6675C0 47.425 2.25763 49.6675 5.03375 49.6675H8.72351V53C8.72351 53.5525 9.17403 54 9.73026 54C10.2865 54 10.737 53.5525 10.737 53V49.6675H39.263V53C39.263 53.5525 39.7135 54 40.2697 54C40.826 54 41.2765 53.5525 41.2765 53V49.6675H44.9662C47.7424 49.6675 50 47.425 50 44.6675V5.00003C50 2.24251 47.7429 0 44.9668 0ZM5.03375 2.00001H44.9668C46.6329 2.00001 47.987 3.34504 47.987 5.00003V15.1678H2.0135V5.00003C2.0135 3.34504 3.3676 2.00001 5.03375 2.00001ZM44.9668 47.6675H5.03375C3.3676 47.6675 2.0135 46.3225 2.0135 44.6675V17.1671H47.987V44.6675C47.987 46.3225 46.6329 47.6675 44.9668 47.6675ZM42.4499 21.6673H7.55098C6.99475 21.6673 6.54423 22.1148 6.54423 22.6673V42.1676C6.54423 42.7201 6.99475 43.1676 7.55098 43.1676H42.4499C43.0062 43.1676 43.4567 42.7201 43.4567 42.1676V22.6673C43.4567 22.1148 43.0062 21.6673 42.4499 21.6673ZM41.4432 41.1676H8.55773V23.6673H41.4432V41.1676ZM10.8232 12.8327C13.184 12.8327 15.1018 10.9277 15.1018 8.58271C15.1018 6.23767 13.1839 4.3327 10.8232 4.3327C8.46231 4.3327 6.54449 6.23773 6.54449 8.58271C6.54449 10.9277 8.46237 12.8327 10.8232 12.8327ZM10.8232 6.33284C12.0715 6.33284 13.0883 7.34283 13.0883 8.58284C13.0883 9.82284 12.0715 10.8328 10.8232 10.8328C9.57479 10.8328 8.55799 9.82284 8.55799 8.58284C8.55799 7.34283 9.57479 6.33284 10.8232 6.33284ZM37.0818 8.58284C37.0818 8.03033 37.5323 7.58283 38.0885 7.58283H42.4502C43.0065 7.58283 43.457 8.03033 43.457 8.58284C43.457 9.13534 43.0065 9.58284 42.4502 9.58284H38.0885C37.5323 9.58284 37.0818 9.13534 37.0818 8.58284ZM27.2662 8.58284C27.2662 8.03033 27.7167 7.58283 28.273 7.58283H32.6347C33.1909 7.58283 33.6414 8.03033 33.6414 8.58284C33.6414 9.13534 33.1909 9.58284 32.6347 9.58284H28.273C27.7167 9.58284 27.2662 9.13534 27.2662 8.58284ZM17.4506 8.58284C17.4506 8.03033 17.9012 7.58283 18.4574 7.58283H22.8191C23.3753 7.58283 23.8259 8.03033 23.8259 8.58284C23.8259 9.13534 23.3753 9.58284 22.8191 9.58284H18.4574C17.9012 9.58284 17.4506 9.13534 17.4506 8.58284Z" fill="#286699"/>
</svg>
