<svg width="64" height="44" viewBox="0 0 64 44" fill="none" xmlns="http://www.w3.org/2000/svg">
<path d="M36.45 35.71H21.74C21.2 35.71 20.77 35.28 20.77 34.74C20.77 34.2 21.2 33.77 21.74 33.77H35.48V1.94H1.94V33.78H8.3C8.84 33.78 9.27 34.21 9.27 34.75C9.27 35.29 8.84 35.72 8.3 35.72H0.97C0.43 35.71 0 35.28 0 34.75V0.97C0 0.43 0.43 0 0.97 0H36.45C36.99 0 37.42 0.43 37.42 0.97V34.75C37.42 35.28 36.99 35.71 36.45 35.71Z" fill="#286699"/>
<path d="M43.5 35.7095H36.45C35.91 35.7095 35.48 35.2795 35.48 34.7395C35.48 34.1995 35.91 33.7695 36.45 33.7695H43.5C44.04 33.7695 44.47 34.1995 44.47 34.7395C44.47 35.2795 44.04 35.7095 43.5 35.7095Z" fill="#286699"/>
<path d="M63.03 35.7102H56.94C56.4 35.7102 55.97 35.2802 55.97 34.7402C55.97 34.2002 56.4 33.7702 56.94 33.7702H62.06V24.6802L51.2 9.14019H36.45C35.91 9.14019 35.48 8.71019 35.48 8.17019C35.48 7.63019 35.91 7.2002 36.45 7.2002H51.71C52.03 7.2002 52.32 7.3502 52.5 7.6102L63.83 23.8302C63.94 23.9902 64 24.1902 64 24.3902V34.7502C64 35.2802 63.57 35.7102 63.03 35.7102Z" fill="#286699"/>
<path d="M53.9898 21.8799H41.7898C41.2498 21.8799 40.8198 21.4499 40.8198 20.9099V13.5999C40.8198 13.0599 41.2498 12.6299 41.7898 12.6299H49.6698C49.9598 12.6299 50.2398 12.7599 50.4298 12.9899L54.7598 18.3799C54.8998 18.5499 54.9698 18.7699 54.9698 18.9899V20.9099C54.9598 21.4399 54.5298 21.8799 53.9898 21.8799ZM42.7598 19.9399H53.0298V19.3299L49.2098 14.5699H42.7698V19.9399H42.7598Z" fill="#286699"/>
<path d="M50.2199 43.6596C45.9299 43.6596 42.4399 40.1696 42.4399 35.8796C42.4399 35.4396 42.4799 34.9996 42.5499 34.5796C43.1799 30.8196 46.4099 28.0996 50.2199 28.0996C54.0299 28.0996 57.2599 30.8296 57.8899 34.5896C57.9599 35.0096 57.9999 35.4496 57.9999 35.8896C57.9999 40.1696 54.5099 43.6596 50.2199 43.6596ZM50.2199 30.0396C47.3599 30.0396 44.9299 32.0896 44.4599 34.9096C44.4099 35.2296 44.3799 35.5496 44.3799 35.8796C44.3799 39.0996 46.9999 41.7196 50.2199 41.7196C53.4399 41.7196 56.0599 39.0996 56.0599 35.8796C56.0599 35.5496 56.0299 35.2196 55.9799 34.9096C55.4999 32.0896 53.0799 30.0396 50.2199 30.0396Z" fill="#286699"/>
<path d="M15.0202 43.6596C10.7302 43.6596 7.24023 40.1696 7.24023 35.8796C7.24023 35.4396 7.28023 34.9996 7.35023 34.5796C7.98023 30.8196 11.2102 28.0996 15.0202 28.0996C18.8302 28.0996 22.0602 30.8296 22.6902 34.5896C22.7602 35.0096 22.8002 35.4496 22.8002 35.8896C22.8002 40.1696 19.3102 43.6596 15.0202 43.6596ZM15.0202 30.0396C12.1602 30.0396 9.73023 32.0896 9.26023 34.9096C9.21023 35.2296 9.18023 35.5496 9.18023 35.8796C9.18023 39.0996 11.8002 41.7196 15.0202 41.7196C18.2402 41.7196 20.8602 39.0996 20.8602 35.8796C20.8602 35.5496 20.8302 35.2196 20.7802 34.9096C20.3102 32.0896 17.8802 30.0396 15.0202 30.0396Z" fill="#286699"/>
<path d="M50.2202 40.1396C47.9902 40.1396 46.1802 38.3296 46.1802 36.0996C46.1802 33.8696 47.9902 32.0596 50.2202 32.0596C52.4502 32.0596 54.2602 33.8696 54.2602 36.0996C54.2602 38.3196 52.4502 40.1396 50.2202 40.1396ZM50.2202 33.9896C49.0602 33.9896 48.1202 34.9296 48.1202 36.0896C48.1202 37.2496 49.0602 38.1896 50.2202 38.1896C51.3802 38.1896 52.3202 37.2496 52.3202 36.0896C52.3202 34.9296 51.3802 33.9896 50.2202 33.9896Z" fill="#286699"/>
<path d="M15.02 40.1396C12.79 40.1396 10.98 38.3296 10.98 36.0996C10.98 33.8696 12.79 32.0596 15.02 32.0596C17.25 32.0596 19.06 33.8696 19.06 36.0996C19.06 38.3196 17.25 40.1396 15.02 40.1396ZM15.02 33.9896C13.86 33.9896 12.92 34.9296 12.92 36.0896C12.92 37.2496 13.86 38.1896 15.02 38.1896C16.18 38.1896 17.12 37.2496 17.12 36.0896C17.12 34.9296 16.18 33.9896 15.02 33.9896Z" fill="#286699"/>
</svg>
