<svg width="51" height="72" viewBox="0 0 51 72" fill="none" xmlns="http://www.w3.org/2000/svg">
<path d="M0.0136731 65.3625C0.0136731 65.9311 0.474776 66.4026 1.05378 66.4026H5.17941V69.9875C5.17941 70.5561 5.64052 71.0276 6.21952 71.0276H12.3179C12.8865 71.0276 13.358 70.5665 13.358 69.9875V66.4026H34.9332V69.9875C34.9332 70.5561 35.3943 71.0276 35.9733 71.0276H42.0717C42.6402 71.0276 43.1118 70.5665 43.1118 69.9875V66.4026H47.2374C47.806 66.4026 48.2775 65.9415 48.2775 65.3625V40.7511C48.2775 40.1825 47.8164 39.711 47.2374 39.711H42.7095L42.7026 17.1444V2.08021H49.9624C50.531 2.08021 51.0025 1.61911 51.0025 1.04011C51.0025 0.464592 50.5414 0 49.9624 0H41.673C41.1044 0 40.6328 0.461104 40.6328 1.04011L40.6363 16.1043H6.60808C6.0395 16.1043 5.56797 16.5654 5.56797 17.1444V39.7243H1.04011C0.471531 39.7243 0 40.1854 0 40.7644V65.3758L0.0136731 65.3625ZM11.2677 68.9474H7.23904V66.3992H11.2677V68.9474ZM41.0109 68.9474H36.9822V66.3992H41.0109V68.9474ZM12.2972 64.3329H2.07276V60.9769H46.1586V64.3329H12.2972ZM31.3518 39.7214V35.2041H40.6017V39.7214H31.3518ZM18.9537 39.7214V35.2041H29.2856V39.7214H18.9537ZM7.63763 26.6027H16.8876V33.1276H7.63763V26.6027ZM18.9537 26.6027H29.2856V33.1276H18.9537V26.6027ZM40.6017 33.1276H31.3518V26.6027H40.6017V33.1276ZM40.6017 24.5365H31.3518V18.1711H40.6017V24.5365ZM29.2856 24.5365H18.9537V18.1711H29.2856V24.5365ZM16.8876 18.1711V24.5365H7.63763V18.1711H16.8876ZM7.63763 35.1941H16.8876V39.7115H7.63763V35.1941ZM46.1657 41.7813V58.9117H2.07986V41.7813H46.1657Z" fill="#286699"/>
<path d="M8.79135 52.0419C10.7883 52.0419 12.4212 50.4194 12.4212 48.4121C12.4212 46.4047 10.7987 44.7822 8.79135 44.7822C6.784 44.7822 5.17188 46.4047 5.17188 48.4121C5.17188 50.4194 6.79438 52.0419 8.79135 52.0419ZM8.79135 46.8589C9.65115 46.8589 10.3549 47.5592 10.3549 48.4225C10.3549 49.2823 9.6546 49.986 8.79135 49.986C7.93154 49.986 7.23815 49.2857 7.23815 48.4225C7.23815 47.5627 7.93848 46.8589 8.79135 46.8589Z" fill="#286699"/>
<path d="M17.4281 52.0419C19.425 52.0419 21.0579 50.4194 21.0579 48.4121C21.0579 46.4047 19.4354 44.7822 17.4281 44.7822C15.4207 44.7822 13.8086 46.4047 13.8086 48.4121C13.8086 50.4194 15.4311 52.0419 17.4281 52.0419ZM17.4281 46.8589C18.2879 46.8589 18.9916 47.5592 18.9916 48.4225C18.9916 49.2823 18.2913 49.986 17.4281 49.986C16.5683 49.986 15.8749 49.2857 15.8749 48.4225C15.8749 47.5627 16.5752 46.8589 17.4281 46.8589Z" fill="#286699"/>
</svg>
