<svg width="43" height="43" viewBox="0 0 43 43" fill="none" xmlns="http://www.w3.org/2000/svg">
<path d="M21.5 0.000335753V2.68784C31.8744 2.68784 40.3125 11.1259 40.3125 21.5003C40.3125 31.8748 31.8744 40.3128 21.5 40.3128C11.1256 40.3128 2.6875 31.8748 2.6875 21.5003C2.6875 16.8707 4.35409 12.4986 7.39063 9.05721V14.7813H10.0781V5.375H0.671875V8.0625H4.71623C1.65866 11.8654 0 16.5557 0 21.5C0 33.3526 9.64745 43 21.5 43C33.3526 43 43 33.3526 43 21.5C43 9.64745 33.3526 0.000335753 21.5 0.000335753Z" fill="#286699"/>
<path d="M22.8438 5.375H20.1563V20.1563H10.75V22.8438H22.8438V5.375Z" fill="#286699"/>
</svg>
