<svg width="196" height="45" viewBox="0 0 196 45" fill="none" xmlns="http://www.w3.org/2000/svg">
<path fill-rule="evenodd" clip-rule="evenodd" d="M11.1685 27.683C11.5338 27.683 11.9397 27.48 12.2644 26.8306L11.1685 27.683Z" fill="white"/>
<path fill-rule="evenodd" clip-rule="evenodd" d="M17.788 29.0634C17.788 29.0634 17.7067 28.211 16.3259 27.8863C14.9857 27.6021 14.2953 28.3734 13.8892 28.7387C13.4018 29.104 13.28 29.2258 12.8333 29.1446C12.3459 29.0228 13.1175 29.6317 13.4018 30.0376C13.6861 30.4435 13.6049 31.0118 13.9704 31.4989C14.1735 31.7018 14.3359 31.8642 14.3765 31.986C14.9451 31.7018 15.4324 31.4177 15.9198 31.1336C15.7167 30.8494 15.6355 30.5653 15.6355 30.5653C15.27 30.1594 15.7167 29.7129 16.1229 29.6723C16.4884 29.5911 16.8945 29.7535 17.2194 30.0376C17.3006 29.9564 17.4225 29.8347 17.5849 29.6723C17.6661 29.5505 17.788 29.3881 17.9504 29.2664L17.788 29.0634ZM14.6608 29.1446C14.9451 29.1446 15.1482 29.3475 15.1482 29.5505C15.1482 29.7535 14.9451 29.9564 14.6608 29.9564C14.3765 29.9564 14.1735 29.7535 14.1735 29.5505C14.1735 29.3475 14.3765 29.1446 14.6608 29.1446Z" fill="white"/>
<path fill-rule="evenodd" clip-rule="evenodd" d="M10.1933 29.916C10.6804 29.916 11.0863 30.3219 11.0863 30.809C11.0863 31.2961 10.6804 31.702 10.1933 31.702C9.7062 31.702 9.30029 31.2961 9.30029 30.809C9.30029 30.3219 9.7062 29.916 10.1933 29.916ZM10.3963 31.1743C10.3963 31.1743 10.2745 30.8902 10.3151 30.6873C10.3151 30.4843 10.4368 30.4031 10.3963 30.2813C10.3151 30.1596 10.7616 30.4031 10.6804 30.6873C10.5992 30.9714 10.3963 31.1743 10.3963 31.1743Z" fill="white"/>
<path fill-rule="evenodd" clip-rule="evenodd" d="M12.0217 30.6055C12.0217 30.6055 11.7374 29.266 10.9658 29.0224C10.1941 28.6571 9.78801 29.0224 9.21944 28.8195C8.73209 28.6977 8.32597 28.5353 8.04168 28.6977C7.67617 28.8195 7.35127 29.266 7.4325 29.7937C7.55434 30.4025 8.04168 30.6461 8.12291 31.3767C8.24474 31.945 8.73209 32.5539 9.21944 32.838C9.62556 32.838 9.99107 32.838 10.316 32.838C11.2501 32.6351 12.4278 32.148 12.0217 30.6055ZM11.575 30.6055C11.575 30.6055 11.3719 29.5501 10.7221 29.266C10.1129 28.9819 9.7474 29.266 9.34128 29.1442C8.85393 29.0224 8.48842 28.8601 8.28535 29.0224C8.00107 29.1442 7.67617 29.5095 7.79801 29.9966C7.87923 30.4837 8.28535 30.6867 8.36658 31.255C8.48841 31.8638 9.05699 32.5945 9.62556 32.5945C10.1129 32.5539 12.0623 32.3509 11.575 30.6055Z" fill="white"/>
<path fill-rule="evenodd" clip-rule="evenodd" d="M6.70054 30.4031C6.70054 30.4031 6.90349 29.3477 6.49758 28.8201C6.13226 28.2518 5.88871 28.2518 5.72634 27.9676C5.60457 27.7647 5.36103 29.0636 5.60458 29.5507C5.88871 30.0378 6.29463 31.2149 6.70054 30.4031ZM6.37581 29.8348C6.37581 29.8348 6.45699 29.3477 6.29463 29.0636C6.09167 28.8606 6.01048 28.8606 5.9293 28.6983C5.84812 28.5765 5.72635 29.1854 5.84812 29.3883C5.9293 29.7131 6.13226 30.2002 6.37581 29.8348Z" fill="white"/>
<path fill-rule="evenodd" clip-rule="evenodd" d="M4.75164 28.8604C4.75164 28.8604 3.85817 26.9932 2.43674 26.3438C1.38082 25.8567 0.365511 25.9379 0 27.0338V28.8604C0.365511 29.2258 0.690409 29.5505 1.09653 29.9158C0.89347 29.5505 0.731022 29.1446 0.609185 28.7387C0.243674 27.1556 1.09653 26.9932 1.09653 26.9932L1.86816 28.5763C1.86816 29.7534 1.74633 30.1594 1.50266 30.2405C2.27429 30.8088 3.08654 31.3365 4.06123 31.783C4.83287 31.2959 5.23899 30.4029 4.75164 28.8604Z" fill="white"/>
<path fill-rule="evenodd" clip-rule="evenodd" d="M17.4227 20.4175C17.4227 20.4175 15.6764 18.1038 15.4733 16.2366C15.2703 14.41 15.1078 13.517 15.2703 12.827C15.3921 12.2181 14.7017 12.9487 13.727 12.4616C12.7523 11.9745 13.2397 11.6904 13.6052 11.4063C13.9707 11.1221 13.8082 10.3509 13.1178 10.4321C12.4274 10.4321 12.2244 11.3251 11.7776 11.0004C11.2903 10.635 11.2091 9.82321 10.8842 9.25493C10.478 8.68666 9.30027 8.9708 9.4221 9.74203C9.62517 10.5133 10.1125 10.838 10.3156 11.3251C10.5999 11.8122 10.1125 12.0963 9.4221 11.6092C8.73169 11.1221 8.24434 11.528 8.0819 11.731C7.96006 11.934 7.96006 12.7864 8.65047 12.7864C9.25966 12.7864 9.82823 13.1517 9.50333 13.3546C9.21904 13.4764 7.83822 14.6942 8.89414 14.6942C9.86884 14.6942 10.1531 13.8417 10.4374 14.2071C10.7217 14.613 11.209 17.0079 10.9248 18.185C10.5592 19.281 10.3156 20.9046 8.69108 21.2293C7.1072 21.5947 4.87352 22.2035 3.45209 21.7976C1.99005 21.3917 1.21841 20.6205 0.609226 20.2146C0.32494 20.0116 0.203099 19.9304 0.0406494 19.8492V20.2552C0.324936 20.7422 0.812285 21.5135 1.38086 21.9194C2.27433 22.5283 2.35556 22.9748 1.74637 22.8124C1.05596 22.6094 0.568614 22.6906 0.406164 22.4471C0.284327 22.2441 0.771673 23.7866 1.58392 23.7866C2.47739 23.7866 3.1678 24.2737 3.41148 24.639C3.61454 24.9231 3.04597 25.0449 2.35556 24.842C1.58392 24.5578 2.43678 25.6944 4.42678 26.425C6.41679 27.1557 8.89415 28.6575 12.3056 27.8051C15.717 26.9121 17.3415 25.6538 17.8289 24.4766C18.2756 23.4213 18.1538 21.757 17.4227 20.4175ZM15.8389 18.9156C15.8389 18.9156 16.6105 21.3511 15.4733 23.0153C14.2956 24.5984 13.3209 25.5726 11.9401 25.735C10.5999 25.8567 8.81292 26.1003 8.24435 26.1409C7.67578 26.2221 8.32557 23.0154 10.3156 21.3511C12.3462 19.7275 12.9148 18.7533 15.8389 18.9156ZM13.2397 13.3952C13.5239 13.3952 13.8082 13.6794 13.8082 13.9635C13.8082 14.3288 13.5239 14.5318 13.2397 14.5318C12.9554 14.5318 12.7523 14.3288 12.7523 13.9635C12.7523 13.6794 12.996 13.3952 13.2397 13.3952Z" fill="white"/>
<path fill-rule="evenodd" clip-rule="evenodd" d="M2.8833 19.9305C2.8833 19.9305 2.27412 19.1593 1.5431 19.0781C0.852688 19.0781 0.690234 19.1999 0.44656 19.1999C0.162273 19.1187 1.05575 20.1741 1.62432 20.2553C2.19289 20.4176 3.28942 20.783 2.8833 19.9305ZM2.23351 19.8899C2.23351 19.8899 1.94922 19.5246 1.62432 19.5246C1.34003 19.5246 1.25881 19.6058 1.13697 19.6058C1.01514 19.5246 1.42126 20.0117 1.62432 20.0929C1.90861 20.0929 2.47718 20.2959 2.23351 19.8899Z" fill="white"/>
<path fill-rule="evenodd" clip-rule="evenodd" d="M8.0414 20.7821C8.0414 20.7821 9.01609 20.4979 9.38161 19.8891C9.66589 19.2802 9.50345 19.0367 9.6659 18.8337C9.78773 18.5496 8.56936 18.9555 8.28507 19.4426C7.87895 19.9297 7.10732 20.8633 8.0414 20.7821ZM8.32569 20.2138C8.32569 20.2138 8.81304 20.092 8.93487 19.8079C9.05671 19.5237 9.0161 19.4426 9.05671 19.3208C9.13794 19.2396 8.56936 19.402 8.44753 19.6049C8.24447 19.8891 7.87895 20.295 8.32569 20.2138Z" fill="white"/>
<path fill-rule="evenodd" clip-rule="evenodd" d="M17.9916 19.809C17.9916 19.809 18.8851 20.3773 19.5349 20.1744C20.2253 19.9714 20.3065 19.7684 20.5908 19.7684C20.8751 19.6873 19.6973 18.9972 19.1287 19.0784C18.5602 19.119 17.3824 19.119 17.9916 19.809ZM18.6414 19.6873C18.6414 19.6873 19.0475 19.9714 19.3318 19.809C19.6973 19.7279 19.6973 19.6873 19.8191 19.6061C19.941 19.6061 19.413 19.322 19.21 19.322C18.8851 19.322 18.3571 19.322 18.6414 19.6873Z" fill="white"/>
<path fill-rule="evenodd" clip-rule="evenodd" d="M20.1433 12.5832C20.1433 12.5832 20.2651 10.8378 19.7372 10.2289C19.1686 9.62008 18.397 9.17357 18.3564 8.97062C18.2345 8.76766 17.9502 10.4319 18.3564 11.2843C18.7625 12.1367 19.8184 12.908 20.1433 12.5832ZM19.7372 11.8526C19.7372 11.8526 19.4529 11.0814 19.1686 10.4725C18.8031 9.86362 18.5594 9.57948 18.5594 9.57948C18.5594 9.57948 18.5594 12.1367 19.7372 11.8526Z" fill="white"/>
<path fill-rule="evenodd" clip-rule="evenodd" d="M24.1239 9.57944C24.1239 9.57944 21.809 7.99638 21.4028 7.34693C20.9967 6.65688 20.7124 5.60151 20.6312 6.37274C20.5094 7.22515 19.9408 9.70122 20.55 10.5536C21.1592 11.406 21.6465 12.0961 22.5806 12.0149C23.5147 11.8525 24.9767 11.4466 24.1239 9.57944ZM23.4335 10.3507C23.4335 10.3507 22.0526 9.25471 21.6871 8.80821C21.3216 8.44289 21.1186 7.91521 21.1186 7.91521C21.1186 7.91521 20.6312 10.2289 21.6871 10.716C22.743 11.1625 22.7431 11.3655 23.4335 10.3507Z" fill="white"/>
<path fill-rule="evenodd" clip-rule="evenodd" d="M44.6735 7.14414C44.1862 6.45409 43.577 6.08877 42.9272 6.25113C42.0337 6.45409 40.8966 7.50946 40.2062 7.83419C39.5158 8.2401 38.3786 7.46887 37.8507 7.26591C37.3633 7.14414 36.1043 7.38769 35.7794 8.93016C39.1096 7.87478 42.0337 8.03715 44.7141 8.56483V7.14414H44.6735Z" fill="white"/>
<path fill-rule="evenodd" clip-rule="evenodd" d="M42.1557 0.0405273C41.7496 0.892942 41.2622 1.62358 41.0998 1.86713C40.8155 2.23245 40.6937 3.73433 41.8714 3.73433C42.9679 3.81551 44.1863 3.12546 44.5924 2.27304C44.5112 1.70477 44.3082 1.21767 43.902 0.892945C43.902 0.974127 43.8208 1.01472 43.8208 1.0959C43.3335 1.66418 42.8461 2.43541 42.44 2.63837C42.0339 2.76014 42.0339 2.27304 42.8055 1.38004C43.0898 1.01472 43.2929 0.771171 43.4147 0.487033C43.0898 0.243486 42.6431 0.12171 42.1557 0.0405273Z" fill="white"/>
<path fill-rule="evenodd" clip-rule="evenodd" d="M35.9824 0.446499C35.9824 0.446499 36.0636 2.11074 35.4138 3.00375C34.8453 3.97794 34.0736 4.83035 33.6675 5.43922C33.1802 6.12927 32.8147 6.9005 32.9771 8.15883C33.0989 8.93006 33.3426 9.33597 33.4645 9.70129C34.033 9.49834 34.5204 9.29538 35.0077 9.13302V9.09243C35.292 7.06287 36.2667 6.454 36.754 5.88572C37.1602 5.31745 37.1196 4.78976 38.1349 5.5204C39.1096 6.29163 41.059 6.9005 41.262 6.12927C41.5463 5.43922 42.0337 4.5868 40.8965 4.09971C39.7188 3.61261 38.6628 3.00375 38.3379 2.84138C37.9318 2.7602 37.4445 2.23251 39.1908 1.66424C40.2873 1.29891 40.9371 0.608868 41.3432 0H38.013C37.3632 0.162365 36.754 0.324726 35.9824 0.446499ZM37.2414 3.57202C37.2414 3.57202 38.5004 3.57203 39.272 4.05912C40.0437 4.54621 40.3686 5.23626 40.1249 5.39862C39.7188 5.47981 38.1349 5.5204 37.2414 3.57202ZM34.764 5.5204C34.4798 5.5204 34.2767 5.72335 34.2767 6.00749C34.2767 6.29163 34.4798 6.49459 34.764 6.49459C35.0483 6.49459 35.2514 6.29163 35.2514 6.00749C35.292 5.76395 35.0483 5.5204 34.764 5.5204Z" fill="white"/>
<path fill-rule="evenodd" clip-rule="evenodd" d="M28.6727 0.0405273C28.7946 0.162301 28.7946 0.324669 28.7946 0.405852C28.7134 0.811764 28.3072 0.892946 27.1295 0.811764C25.9517 0.730581 24.7739 0.892945 24.5709 1.29886C24.3678 1.78595 23.8805 3.16605 24.977 3.45019C26.0735 3.65315 27.1295 3.57196 27.5356 3.32842C27.9417 3.12546 28.6321 2.9225 28.6321 3.81551C28.6321 4.70852 29.1195 7.22517 28.8352 7.99641C28.6321 8.76764 29.0382 9.3765 28.8352 9.66064C28.5509 9.94478 31.1501 9.17355 31.3532 7.30636C31.6374 5.43916 30.9876 4.26201 30.9876 2.71955C31.0689 1.38004 30.7846 1.38004 31.1907 0.081121H28.6727V0.0405273ZM29.1601 1.90773C29.1601 1.90773 27.5762 1.50181 27.0076 1.5424C26.4391 1.66417 25.9517 1.82654 25.8299 2.15127C25.708 2.55718 27.698 2.76014 29.1601 1.90773ZM30.1348 4.26202C29.8505 4.26202 29.6474 4.46497 29.6474 4.74911C29.6474 5.03325 29.8505 5.2362 30.1348 5.2362C30.4191 5.2362 30.6221 5.03325 30.6221 4.74911C30.6221 4.50556 30.3785 4.26202 30.1348 4.26202Z" fill="white"/>
<path fill-rule="evenodd" clip-rule="evenodd" d="M22.3774 4.54645C22.3774 4.54645 23.6357 4.66822 23.6357 4.18113C23.6357 3.61285 23.7169 3.08517 23.2704 2.80103C22.8645 2.51689 22.0932 2.59807 21.9309 3.00398C21.8091 3.45049 21.6873 4.70882 22.3774 4.54645ZM22.6615 4.01876C22.7833 4.01876 23.2704 3.89699 23.0674 3.53167C22.9457 3.24753 22.6615 2.96339 22.4991 3.16635C22.3774 3.45048 22.2962 4.01876 22.6615 4.01876Z" fill="white"/>
<path fill-rule="evenodd" clip-rule="evenodd" d="M24.1239 0.0405273C24.408 0.243483 24.8951 0.324666 25.5852 0.0405273H24.1239Z" fill="white"/>
<path fill-rule="evenodd" clip-rule="evenodd" d="M9.50336 17.2509C9.50336 17.2509 8.81295 17.1291 8.40683 16.1955C8.04132 15.3431 7.43213 14.5312 6.94478 14.3283C6.53866 14.1253 5.27968 13.5571 4.38621 13.8412C3.49274 14.2065 2.43682 15.1807 1.82763 15.5054C1.25906 15.9113 0.284361 16.9667 0.0812988 17.0479V17.1291C0.162524 17.2103 0.203135 17.2509 0.365584 17.332C0.568646 17.6162 0.974768 17.738 1.25905 18.1033C1.54334 18.3874 2.23375 18.8745 2.7211 18.9963C3.12722 19.0775 3.89886 19.4022 4.10192 19.4022C4.30498 19.4022 4.46743 19.6051 4.30498 19.8081C4.18314 19.9299 3.93947 20.3764 3.93947 20.3764C3.93947 20.3764 4.50804 20.2546 4.62988 20.0111C4.75172 19.7269 4.91417 19.6051 4.91417 19.6051C4.91417 19.6051 5.32029 19.6051 5.27968 19.8081C5.19846 20.0111 4.9954 20.5793 4.79233 20.6605C4.58927 20.7417 5.07662 20.7823 5.84825 19.8893C6.53866 18.9963 6.90417 19.2804 7.59458 18.5498C8.36622 17.9409 8.16316 17.6974 8.93479 17.6568C9.58459 17.6568 9.50336 17.2509 9.50336 17.2509ZM1.99008 16.8044C1.99008 16.8044 2.96478 17.9815 3.93947 17.9003C4.91417 17.7786 5.52335 17.4132 5.52335 17.0479C5.52335 16.6826 5.44213 16.1549 4.6705 15.9519C3.93947 15.7896 2.88355 15.7896 1.99008 16.8044ZM6.86356 15.9925C7.14785 15.9925 7.35091 16.2767 7.35091 16.4796C7.35091 16.7638 7.14785 17.0479 6.86356 17.0479C6.57927 17.0479 6.37621 16.7638 6.37621 16.4796C6.37621 16.2767 6.57927 15.9925 6.86356 15.9925Z" fill="white"/>
<path fill-rule="evenodd" clip-rule="evenodd" d="M7.96004 13.0705C7.96004 13.0705 7.39147 12.2992 6.86351 12.218C6.25433 12.1369 6.09188 12.2992 5.88882 12.2992C5.60453 12.218 6.29494 13.1516 6.78229 13.2734C7.26964 13.3952 8.24433 13.8417 7.96004 13.0705ZM7.39147 12.9893C7.39147 12.9893 7.10719 12.624 6.8229 12.5834C6.53862 12.5834 6.45739 12.6646 6.41678 12.5834C6.29494 12.5834 6.61984 12.9893 6.8229 13.0705C7.02597 13.1516 7.55392 13.314 7.39147 12.9893Z" fill="white"/>
<path fill-rule="evenodd" clip-rule="evenodd" d="M7.83783 11.1221C7.83783 11.1221 8.69024 10.635 8.81202 10.0667C8.93379 9.49845 8.81202 9.2955 8.8932 9.09254C8.97438 8.88958 8.00019 9.45786 7.79724 9.94496C7.55369 10.3509 6.98542 11.3251 7.83783 11.1221ZM7.9596 10.5538C7.9596 10.5538 8.36552 10.3509 8.4467 10.0667C8.52788 9.78259 8.4467 9.70141 8.4467 9.66082C8.52788 9.53904 8.04078 9.78259 7.9596 10.0261C7.83783 10.1885 7.59428 10.635 7.9596 10.5538Z" fill="white"/>
<path fill-rule="evenodd" clip-rule="evenodd" d="M9.62455 3.24724C9.62455 3.24724 10.5176 3.04428 10.3958 1.86713C10.274 0.892942 10.0305 0.527622 9.90869 0.0405273H9.21864C9.09686 0.243483 9.01568 0.608807 8.9345 0.892945C8.73154 1.70477 8.52859 3.28783 9.62455 3.24724ZM9.62455 2.55718C9.70573 2.43541 10.0305 2.43541 9.8275 1.94831C9.54337 1.46122 9.62455 1.17708 9.54337 0.892945C9.54337 0.527624 9.25923 1.29885 9.25923 1.66418C9.29982 1.9889 9.34041 2.80073 9.62455 2.55718Z" fill="white"/>
<path fill-rule="evenodd" clip-rule="evenodd" d="M11.0466 0.0405273C10.9654 0.608804 10.9654 1.98891 12.1026 1.0959C12.5087 0.73058 12.8742 0.405848 13.1991 0.0405273H11.0466ZM14.3768 0.0405273C14.4581 1.21767 14.2956 3.32842 14.2956 3.65315C14.2956 4.14024 14.2144 5.6827 15.0673 5.52034C15.9607 5.39857 16.4481 5.52034 16.7324 3.369C16.9354 1.13649 17.3009 0.243482 17.5852 0.933533C17.8695 1.70477 18.9254 4.62733 19.4128 4.91147C19.9814 5.19561 21.2809 6.00744 21.0779 3.81551C20.8748 2.15127 20.4687 0.608804 20.4687 0.0405273H19.494C19.6971 1.0959 19.8595 1.98891 19.5752 2.19186C19.2097 2.39482 18.966 1.33944 18.3975 0.121709L18.3162 0.0405273H16.6511C16.3669 1.29885 15.9607 2.96309 15.7983 3.16605C15.514 3.45019 15.3109 2.19186 15.7171 0.243483C15.7171 0.162301 15.7171 0.12171 15.7171 0.0405273H14.3768ZM20.7936 0.0405273C21.281 0.730578 22.2556 2.59777 22.6212 2.27304C23.0273 1.86713 23.6771 1.70477 23.3116 0.730577C23.2303 0.527621 23.1085 0.243483 22.9461 0.0405273H20.7936Z" fill="white"/>
<path fill-rule="evenodd" clip-rule="evenodd" d="M32.2867 0.0405273C32.2055 0.608804 32.0024 1.78595 32.1649 2.35422C32.2867 3.12546 32.7334 4.01847 32.7334 4.01847C32.7334 4.01847 33.83 3.93728 34.3986 2.55718C34.8859 1.0959 34.9671 0.405847 34.8047 0.121709L34.7235 0.0405273H32.2867Z" fill="white"/>
<path fill-rule="evenodd" clip-rule="evenodd" d="M0.852896 14.3696C0.852896 14.3696 0.934126 11.65 1.54331 10.6758C2.1525 9.70163 3.08658 8.36212 3.77699 8.03739C4.4674 7.67207 6.41679 7.14439 6.49802 6.86025C6.49802 6.49493 6.41679 6.08902 5.80761 6.1702C5.23903 6.25138 4.34556 6.86025 4.42678 6.25138C4.50801 5.64251 5.40148 4.66832 5.40148 4.18123C5.40148 3.69413 5.60454 3.12586 5.27965 3.20704C4.91413 3.20704 4.67046 4.05946 4.42678 4.54655C4.1425 5.03365 3.57393 5.80488 3.57393 4.66833C3.57393 3.61296 3.98005 3.08527 3.93944 2.71995C3.85821 2.35463 3.33025 2.59817 3.1678 3.20704C3.04597 3.89709 2.88351 4.74951 2.59923 4.74951C2.31494 4.83069 2.1931 3.97827 2.1931 3.00409C2.1931 2.11108 1.78698 1.90813 1.58392 2.23286C1.38086 2.55759 1.70576 4.46537 1.46208 4.58714C1.1778 4.70891 0.771675 4.303 0.609226 3.69414C0.528001 3.32881 0.203099 3.12586 0.0406494 3.20704V4.18123C0.243711 4.7495 0.446778 5.07424 0.121879 5.64251C0.121879 5.7237 0.121874 5.76429 0.0406494 5.84547V7.91562C0.406161 8.40272 0.731059 9.01159 0.446773 9.94518C0.243711 10.6352 0.0812618 12.3807 0.0406494 13.5578V14.8973C0.162486 15.5062 0.771672 15.7091 0.852896 14.3696Z" fill="white"/>
<path fill-rule="evenodd" clip-rule="evenodd" d="M3.16798 13.8412C3.16798 13.8412 1.78715 13.963 1.78715 13.4759C1.78715 12.9888 1.66531 11.9334 2.07144 11.6493C2.43695 11.4463 2.43695 11.8522 2.43695 12.0552C2.51818 12.177 2.80246 12.7452 2.84308 12.0552C2.84308 11.3651 2.72124 10.878 2.84308 10.4721C3.04614 9.98504 3.2492 9.90386 3.2492 9.90386C3.2492 9.90386 3.2492 10.7563 3.61471 10.9998C3.98022 11.2434 4.18328 11.2028 4.10206 10.4315C3.98022 9.7415 3.98022 9.2544 4.18328 9.05144C4.38635 8.84849 4.75186 8.84849 4.75186 9.17322C4.67063 9.57913 5.15798 10.2692 5.32043 9.7415C5.40165 9.13263 5.2392 8.48317 5.44226 8.28021C5.64533 8.07725 5.80778 7.8743 6.29513 7.79312C6.70125 7.67134 7.14798 7.50898 7.39166 7.67134C7.67594 7.8743 8.08207 8.23962 8.00084 8.52376C7.91962 8.88908 7.22921 9.86327 6.74186 10.4721C6.13267 11.0404 3.16798 13.8412 3.16798 13.8412Z" fill="white"/>
<path fill-rule="evenodd" clip-rule="evenodd" d="M7.96009 2.80083C7.96009 2.80083 8.56928 1.70486 6.78234 0.852448C4.91417 -0.040559 4.95478 0.162398 4.95478 0.162398C4.95478 0.162398 5.07662 1.90782 5.72641 2.39492C6.37621 2.88201 7.47274 3.57206 7.96009 2.80083Z" fill="white"/>
<path fill-rule="evenodd" clip-rule="evenodd" d="M9.5845 5.03291C9.5845 5.03291 9.17838 3.97754 8.40674 3.97754C7.63511 3.97754 7.02592 4.1805 6.25429 4.1805C5.40143 4.09931 6.74163 4.95173 6.74163 5.07351C6.78224 5.19528 9.01592 6.4942 9.5845 5.03291Z" fill="white"/>
<path fill-rule="evenodd" clip-rule="evenodd" d="M11.2902 6.85964C11.2902 6.85964 10.3967 6.25077 9.42198 6.37255C8.52851 6.5755 8.08177 6.77846 7.87871 6.77846C7.59443 6.77846 8.24423 7.34674 9.1377 7.67146C10.0718 7.9556 11.5338 8.11797 11.2902 6.85964Z" fill="white"/>
<path fill-rule="evenodd" clip-rule="evenodd" d="M11.5331 5.80426C11.5331 5.80426 12.3855 4.2618 11.939 3.44997C11.5331 2.55696 11.4519 2.354 11.4519 2.354C11.4519 2.354 10.4777 3.12524 10.3965 3.53115C10.2748 4.01825 10.1124 6.00721 11.5331 5.80426Z" fill="white"/>
<path fill-rule="evenodd" clip-rule="evenodd" d="M13.0361 7.71217C13.0361 7.71217 14.0103 7.02211 14.0103 6.25088C14.0103 5.47965 13.8073 4.66782 13.6044 4.22132C13.4826 3.81541 12.7114 4.83019 12.5084 5.27669C12.3055 5.7232 12.0213 6.81915 12.1431 7.14388C12.346 7.42802 12.346 7.83394 13.0361 7.71217Z" fill="white"/>
<path fill-rule="evenodd" clip-rule="evenodd" d="M12.5084 8.24023C12.5084 8.24023 13.8486 9.41738 14.5796 9.62034C15.2701 9.90448 15.6762 10.1886 16.6103 10.2292C17.5037 10.351 17.8692 10.7163 17.3007 10.7975C16.7321 10.8787 15.2294 10.6757 14.4578 10.1886C13.7674 9.7827 12.6303 8.72733 12.6303 8.72733L12.5084 8.24023Z" fill="white"/>
<path fill-rule="evenodd" clip-rule="evenodd" d="M26.1949 5.60193C26.1949 5.60193 26.3167 4.42478 25.4232 4.50597C24.5298 4.58715 23.6769 5.60193 23.0677 5.68312C22.4585 5.68312 21.6869 5.80489 21.4026 5.7643C21.0371 5.64252 22.093 6.53553 23.2302 6.81966C24.4079 7.14439 25.7887 6.98203 26.1949 5.60193Z" fill="white"/>
<path fill-rule="evenodd" clip-rule="evenodd" d="M27.738 4.62744C27.738 4.62744 27.3725 6.37286 26.4791 6.98173C25.5856 7.67178 24.9358 8.36183 24.9358 8.80834C24.9358 9.25484 25.0576 9.98548 25.0576 9.98548C25.0576 9.98548 26.1542 10.1884 26.8852 9.21425C27.6162 8.19947 28.5909 7.34705 27.738 4.62744Z" fill="white"/>
<path fill-rule="evenodd" clip-rule="evenodd" d="M8.24451 0.730577C8.24451 0.730577 8.52864 0.446439 8.60983 0.0405273H7.39209C7.55445 0.608804 7.87919 1.01472 8.24451 0.730577Z" fill="white"/>
<path fill-rule="evenodd" clip-rule="evenodd" d="M19.9405 18.4283C19.9405 18.4283 21.8087 17.0482 21.3213 16.1146C20.9152 15.2216 20.7122 14.5316 19.8593 14.5722C19.0877 14.6534 18.6815 14.7751 18.316 14.5722C17.9505 14.288 16.7728 14.4504 16.7322 14.8563C16.6509 15.3434 16.2448 17.0888 17.1383 17.5759C17.9911 18.063 17.7068 18.4283 19.9405 18.4283Z" fill="white"/>
<path fill-rule="evenodd" clip-rule="evenodd" d="M18.8444 13.6795C18.8444 13.6795 18.4789 12.34 17.7885 12.137C17.0981 12.0152 16.6107 11.934 16.2452 11.8529C15.9609 11.7311 17.0168 13.3141 17.5042 13.5983C18.0727 13.8824 18.8444 13.6795 18.8444 13.6795Z" fill="white"/>
<path fill-rule="evenodd" clip-rule="evenodd" d="M28.1852 12.9079V12.6238C28.1039 11.2842 27.576 10.3912 27.1292 10.3101C26.6419 10.3101 25.3017 10.4318 24.9768 11.2842C24.6519 12.1367 24.4894 12.7455 23.6366 12.7455C22.7837 12.8267 21.8902 12.8673 21.5653 13.1108C21.1998 13.2326 20.6719 14.0039 20.6719 14.0039C20.6719 14.0039 22.0121 13.6385 22.4182 14.3692C22.8243 15.0592 22.9056 16.5205 22.9868 17.4135C22.9868 17.9006 23.1086 18.5907 23.3929 19.1589C23.596 18.7936 23.7584 18.5501 23.9615 18.1847C23.8396 17.7788 23.6772 16.6017 24.0427 16.6017C24.327 16.6017 24.7331 16.4799 25.0986 16.3176C25.586 15.7087 26.0733 15.0592 26.6419 14.4504C26.6419 14.4504 26.6419 14.3692 26.7231 14.3692L26.8449 14.2474L25.1798 12.9079C25.1798 12.9079 25.3017 12.0555 25.7484 11.5278C26.1545 10.9595 27.0074 11.1625 27.3323 11.8119C27.5354 12.0961 27.5354 12.9079 27.4541 13.5574C27.6978 13.3138 27.9009 13.1108 28.1852 12.9079Z" fill="white"/>
<path fill-rule="evenodd" clip-rule="evenodd" d="M0.162424 23.7862C0.568336 23.7862 0.933661 24.1921 0.933661 24.6792C0.933661 25.1663 0.568336 25.5722 0.162424 25.5722C0.0812418 25.5722 0.0812406 25.5722 0.0406494 25.5722V23.7456C0.0812406 23.7862 0.0812418 23.7862 0.162424 23.7862Z" fill="white"/>
<path fill-rule="evenodd" clip-rule="evenodd" d="M16.6509 9.49879C16.6509 9.49879 16.5697 8.44341 16.9352 8.24046C17.2195 8.0375 18.0317 8.24046 17.9911 7.75336C17.8693 7.34745 17.3819 7.46923 17.1383 7.18509C16.9352 6.98213 17.5444 6.61681 17.9099 6.41385C18.1942 6.29208 18.8846 5.64262 18.316 5.35848C17.8287 4.99316 16.9352 5.43967 16.7321 6.04853C16.5291 6.6574 16.2448 7.10391 15.7574 6.90095C15.2701 6.69799 14.4985 6.81977 14.7827 7.18509C15.067 7.591 15.9605 7.46922 15.8793 8.0375C15.8387 8.68696 15.1889 9.9047 16.6509 9.49879Z" fill="white"/>
<path fill-rule="evenodd" clip-rule="evenodd" d="M19.6561 6.37305C19.6561 6.37305 18.6007 7.42841 18.7631 7.83433C18.8443 8.24024 19.1284 8.80852 19.3314 8.60556C19.5343 8.40261 20.0214 8.11847 19.6561 6.37305Z" fill="white"/>
<path fill-rule="evenodd" clip-rule="evenodd" d="M32.3274 10.1887C32.2461 10.1887 32.2055 10.1887 32.1243 10.1887C31.0278 9.82342 30.6623 9.98578 30.4592 9.78283C30.2561 9.57987 29.85 9.78283 29.9719 10.067C30.0937 10.3511 30.5404 10.6352 30.3374 10.6758C30.0531 10.757 29.4439 10.6758 29.4439 10.6758C29.4439 10.6758 29.3221 11.0817 30.0531 11.4471H30.1343C30.7435 11.0412 31.5151 10.6352 32.3274 10.1887Z" fill="white"/>
<path fill-rule="evenodd" clip-rule="evenodd" d="M44.6731 3.85596C44.3077 3.97773 43.6177 4.34305 43.293 4.42423C42.8059 4.54601 42.9277 5.11428 43.3742 5.39842C43.7395 5.68256 44.4295 6.00729 44.7137 6.08847V3.85596H44.6731Z" fill="white"/>
<path fill-rule="evenodd" clip-rule="evenodd" d="M3.08672 0.0405273C2.80243 0.405848 2.51815 0.649395 2.51815 0.649395C2.51815 0.649395 2.23386 0.527623 1.90896 0.162302C1.62467 0.243485 1.34039 0.365258 1.13733 0.568214C1.54345 0.974126 2.0308 1.33945 2.23386 1.42063C2.51815 1.62359 3.12733 1.78595 4.10203 0.0405273H3.08672Z" fill="white"/>
<path fill-rule="evenodd" clip-rule="evenodd" d="M0.0812988 2.31357V2.19179C0.162481 1.7047 0.365435 1.33938 0.649573 1.01465C0.730756 1.09583 0.730761 1.13642 0.730761 1.13642C0.730761 1.42056 1.05549 1.82647 0.0812988 2.31357Z" fill="white"/>
<path fill-rule="evenodd" clip-rule="evenodd" d="M22.7419 20.5797C22.7419 20.4579 22.7419 20.3767 22.7419 20.2955C22.7419 19.9302 21.8895 19.3214 21.646 19.6055C21.443 19.8084 21.1589 19.6867 21.2807 20.8638C21.3618 21.7162 21.4836 22.2439 21.7678 22.6904L21.9707 22.2033C22.2548 21.635 22.4578 21.148 22.7419 20.5797Z" fill="white"/>
<path fill-rule="evenodd" clip-rule="evenodd" d="M21.5652 23.1372C21.4434 22.6501 21.0779 21.6759 20.7123 21.3106C20.3468 20.9047 19.3721 20.4176 19.1285 20.7423C18.9254 21.1076 19.2097 21.8383 19.494 22.2036C19.7783 22.4877 19.6158 22.7719 19.2909 22.8937C18.9254 23.0966 18.8036 24.152 19.3721 24.0708C19.7783 23.9896 20.7123 23.9896 21.4028 23.5025L21.5652 23.1372Z" fill="white"/>
<path fill-rule="evenodd" clip-rule="evenodd" d="M18.8439 28.1706C18.4377 28.1706 18.0722 28.0894 17.991 27.8864C17.7879 27.4805 17.5037 26.4251 18.5596 25.8163C19.3312 25.3292 20.1435 24.7203 20.9963 24.355C20.3465 25.6539 19.6561 26.9122 18.8439 28.1706Z" fill="white"/>
<path fill-rule="evenodd" clip-rule="evenodd" d="M7.75718 32.6757C7.55412 31.7827 7.4729 31.6204 6.90432 31.7827C6.53881 31.8639 6.13269 32.0669 5.72656 32.2698C6.21391 32.3916 6.78249 32.554 7.31045 32.6352C7.4729 32.6352 7.59473 32.6757 7.75718 32.6757Z" fill="white"/>
<path fill-rule="evenodd" clip-rule="evenodd" d="M13.3201 32.351C13.1984 32.1481 13.1172 31.9451 13.036 31.7828C12.9142 31.5798 12.4271 32.0669 12.1836 32.6352C12.6301 32.554 12.9954 32.4728 13.3201 32.351Z" fill="white"/>
<path fill-rule="evenodd" clip-rule="evenodd" d="M15.2702 19.6865C15.2702 19.6865 15.6357 21.919 13.7269 23.2991C11.8587 24.7604 11.4932 25.0446 10.5997 25.1663C9.62504 25.2881 9.34076 25.0852 9.13769 25.1663C8.93463 25.2475 10.1124 22.7309 11.0871 21.8379C12.0618 20.9448 12.4679 21.0666 12.143 21.5537C11.8587 21.9596 11.1683 23.015 11.2495 23.4209C11.3308 23.8268 12.2648 24.4763 15.2702 19.6865Z" fill="white"/>
<path d="M37.3634 12.0957C32.896 11.4869 29.647 12.3799 27.2103 15.0183C25.139 17.2508 23.9207 19.8893 22.7429 22.5277C21.5652 25.1661 20.3062 27.8857 18.1537 30.24C18.1537 30.3212 18.1537 30.3212 18.1537 30.3212C16.5698 31.9854 14.5392 33.5279 11.6557 34.7862C8.81288 36.1257 6.29492 36.5317 3.98001 36.5317C2.59919 36.5317 1.25898 36.4099 0 36.1257V42.0521C0 43.5133 1.17776 44.6905 2.72103 44.6905H41.9526C43.4958 44.6905 44.6736 43.5133 44.6736 42.0521V15.8707C43.0085 14.0847 40.8966 12.6234 37.3634 12.0957Z" fill="white"/>
<path d="M123.137 10.2696C123.137 5.19571 127.157 1.21777 132.193 1.21777C137.229 1.21777 141.25 5.19571 141.25 10.2696C141.25 15.3435 137.229 19.4026 132.193 19.4026C127.157 19.4026 123.137 15.3435 123.137 10.2696ZM137.554 10.2696C137.554 7.22527 135.199 4.70861 132.193 4.70861C129.188 4.70861 126.833 7.22527 126.833 10.2696C126.833 13.3139 129.188 15.8306 132.193 15.8306C135.199 15.8306 137.554 13.3139 137.554 10.2696Z" fill="white"/>
<path d="M101.165 1.4209H99.419C95.0329 1.4209 91.3372 4.26228 91.3372 9.01145V19.1592H95.1141V9.49855C95.1141 6.65716 96.7792 4.91174 99.5815 4.91174H101.165V1.4209Z" fill="white"/>
<path d="M154.124 19.4022H152.378C147.992 19.4022 144.296 16.4796 144.296 11.7304V1.50146H148.073V11.3245C148.073 14.1659 149.738 15.8708 152.54 15.8708H154.124V19.4022Z" fill="white"/>
<path d="M53.5273 16.683L55.1925 13.9634C56.4514 15.2217 58.8069 16.3989 61.1218 16.3989C63.3555 16.3989 64.4521 15.4247 64.4521 14.0852C64.4521 10.6755 54.0147 13.111 54.0147 6.49463C54.0147 3.65325 56.4514 1.21777 60.8376 1.21777C63.7617 1.21777 65.9953 2.27314 67.5792 3.65325L65.9953 6.29167C64.9394 5.11453 62.99 4.22152 60.9188 4.22152C58.8882 4.22152 57.6292 5.11453 57.6292 6.37285C57.6292 9.41719 68.0666 7.14409 68.0666 13.9634C68.0666 17.0077 65.5486 19.4026 60.8782 19.4026C57.9947 19.4026 55.2737 18.4284 53.5273 16.683Z" fill="white"/>
<path d="M111.075 19.1998L103.846 1.4209H107.948L113.106 14.7348L118.304 1.4209H122.447L115.177 19.1998H111.075Z" fill="white"/>
<path d="M184.38 7.42839L188.522 1.4209H192.868L186.532 10.0668L193.274 19.1998H188.969L184.38 12.6241L179.71 19.1998H175.445L182.187 10.0668L175.811 1.4209H180.116L184.38 7.42839Z" fill="white"/>
<path d="M79.3568 4.83045C82.0778 4.83045 83.946 6.21056 84.5145 8.72721H74.0772C74.7676 6.4947 76.7982 4.83045 79.3568 4.83045ZM84.1896 13.6793C83.1337 15.1406 81.5498 16.0336 79.5192 16.0336C76.5139 16.0336 74.4427 14.0041 73.8741 11.4874H88.4539V10.1073C88.4539 4.95223 84.6364 1.17725 79.4786 1.17725C74.3208 1.17725 70.3408 5.19578 70.3408 10.3103C70.3408 15.4248 74.0365 19.3621 79.5192 19.3621C82.8494 19.3621 85.3674 17.982 86.9919 15.7495L84.1896 13.6793Z" fill="white"/>
<path d="M165.211 19.4022C169.678 19.4022 173.415 16.4796 173.415 11.7304V1.50146H169.638V11.3245C169.638 14.1659 167.972 15.8708 165.17 15.8708C162.368 15.8708 160.703 14.2065 160.703 11.3245V1.50146H156.926V11.7304C156.967 16.4796 160.743 19.4022 165.211 19.4022Z" fill="white"/>
<path d="M54.5831 44.6096V32.554H59.5378C60.4313 32.554 61.0811 32.6352 61.5684 32.6758C62.1776 32.757 62.7462 32.9599 63.1523 33.2441C63.6397 33.5282 64.0052 33.9341 64.2082 34.4212C64.4925 34.9083 64.6144 35.3954 64.6144 36.0043C64.6144 37.0597 64.2489 37.8715 63.5584 38.5615C62.868 39.2516 61.5278 39.6575 59.7409 39.6575H56.3295V44.5284H54.5831V44.6096ZM56.3295 38.2774H59.7409C60.8374 38.2774 61.6903 38.1556 62.0964 37.7091C62.5838 37.3032 62.7868 36.8161 62.7868 36.1261C62.7868 35.639 62.7056 35.1519 62.3807 34.7865C62.0964 34.4212 61.7715 34.2183 61.3248 34.0965C61.0405 34.0153 60.4719 33.9747 59.6597 33.9747H56.3295V38.2774ZM66.8481 44.6096V32.554H72.6962C73.7928 32.554 74.7268 32.6758 75.336 32.9194C75.9452 33.1223 76.4326 33.4876 76.7981 34.0153C77.1636 34.5836 77.3666 35.1925 77.3666 35.8419C77.3666 36.7349 77.0011 37.425 76.4732 37.9933C75.864 38.6021 74.9299 38.9674 73.6709 39.0892C74.0771 39.2922 74.4426 39.4951 74.7268 39.6981C75.2142 40.104 75.7016 40.6723 76.1077 41.2811L78.4226 44.569H76.2701L74.5238 42.0524C74.0364 41.3623 73.6303 40.7941 73.2648 40.3881C72.8993 40.0228 72.6556 39.7793 72.3713 39.6169C72.1683 39.414 71.884 39.3328 71.5997 39.2516C71.3966 39.1704 71.0311 39.1704 70.625 39.1704H68.5944V44.5284H66.8481V44.6096ZM68.5538 37.8309H72.3307C73.1024 37.8309 73.7115 37.7497 74.1583 37.6279C74.6456 37.5062 75.0111 37.2626 75.2142 36.9379C75.4173 36.5726 75.5797 36.2478 75.5797 35.8419C75.5797 35.2736 75.3767 34.7866 74.8893 34.4618C74.4832 34.0965 73.7928 33.8935 72.8181 33.8935H68.635V37.8309H68.5538ZM79.5191 38.7645C79.5191 36.7349 80.0877 35.2331 81.2654 34.0965C82.4432 32.9194 83.9865 32.3511 85.814 32.3511C87.073 32.3511 88.1289 32.6352 89.1036 33.2035C90.0783 33.6906 90.85 34.4618 91.3373 35.436C91.8247 36.329 92.1089 37.4656 92.1089 38.6427C92.1089 39.8199 91.8247 40.9564 91.3373 41.9306C90.7687 42.9048 89.9971 43.5948 89.0224 44.0819C88.0477 44.569 86.9512 44.8532 85.814 44.8532C84.555 44.8532 83.4991 44.569 82.5244 44.0008C81.5497 43.4325 80.7781 42.6612 80.2907 41.7682C79.8034 40.7535 79.5191 39.7793 79.5191 38.7645ZM81.3061 38.7645C81.3061 40.2258 81.7122 41.3217 82.565 42.1741C83.4179 43.0266 84.5144 43.4325 85.7734 43.4325C87.1136 43.4325 88.1289 43.0266 88.9818 42.1741C89.8346 41.3217 90.2408 40.1446 90.2408 38.6427C90.2408 37.6685 90.1189 36.8161 89.7534 36.0855C89.3473 35.3954 88.8599 34.8271 88.1695 34.4212C87.4791 34.0153 86.7075 33.8124 85.814 33.8124C84.6363 33.8124 83.5803 34.2183 82.6869 34.9895C81.7528 35.6796 81.3061 36.9379 81.3061 38.7645ZM94.4238 44.6096V32.554H103.277V33.9341H96.1702V37.7091H102.303V39.1704H96.1702V44.6096H94.4238ZM105.511 44.6096V32.554H114.974V33.9341H107.257V37.7091H114.486V39.0892H107.257V43.1889H115.339V44.569H105.511V44.6096ZM117.126 40.7129L118.791 40.6317C118.872 41.2 118.994 41.687 119.279 42.093C119.563 42.4989 120.05 42.783 120.619 43.0672C121.228 43.2701 121.959 43.4325 122.649 43.4325C123.34 43.4325 123.908 43.3107 124.396 43.1483C124.964 42.9454 125.289 42.6612 125.574 42.3771C125.777 42.0118 125.939 41.6871 125.939 41.3217C125.939 40.9564 125.817 40.6317 125.574 40.3475C125.289 40.0634 124.964 39.8604 124.396 39.6575C124.03 39.5357 123.218 39.2922 122.04 39.0486C120.862 38.7645 120.01 38.5615 119.522 38.3586C118.913 37.9933 118.426 37.6685 118.141 37.2626C117.776 36.7755 117.654 36.2884 117.654 35.7202C117.654 35.1113 117.857 34.543 118.223 33.9747C118.629 33.4876 119.197 33.0817 119.888 32.7976C120.578 32.5134 121.431 32.3917 122.325 32.3917C123.218 32.3917 124.152 32.5134 124.842 32.8788C125.614 33.1629 126.183 33.5688 126.589 34.1371C126.995 34.7054 127.198 35.3142 127.198 36.0043L125.533 36.1261C125.452 35.3548 125.167 34.7865 124.639 34.3806C124.152 33.9747 123.38 33.8124 122.406 33.8124C121.309 33.8124 120.578 33.9341 120.05 34.2995C119.644 34.6648 119.36 35.0707 119.36 35.5578C119.36 36.0449 119.563 36.4102 119.928 36.6537C120.213 36.9379 121.106 37.222 122.487 37.5062C123.868 37.7903 124.842 38.0744 125.411 38.2774C126.183 38.6427 126.751 39.0486 127.076 39.5357C127.442 40.0228 127.645 40.5911 127.645 41.2C127.645 41.8088 127.442 42.4583 127.036 43.0266C126.67 43.5948 126.061 44.0819 125.37 44.3661C124.599 44.7314 123.787 44.8532 122.812 44.8532C121.634 44.8532 120.659 44.7314 119.807 44.3661C119.035 44.0819 118.426 43.5948 117.938 42.9048C117.41 42.2147 117.126 41.5247 117.126 40.7129ZM129.391 40.7129L130.975 40.6317C131.056 41.2 131.259 41.687 131.544 42.093C131.828 42.4989 132.234 42.783 132.884 43.0672C133.452 43.2701 134.143 43.4325 134.833 43.4325C135.524 43.4325 136.092 43.3107 136.661 43.1483C137.148 42.9454 137.514 42.6612 137.757 42.3771C137.96 42.0118 138.123 41.6871 138.123 41.3217C138.123 40.9564 138.042 40.6317 137.757 40.3475C137.554 40.0634 137.148 39.8604 136.579 39.6575C136.214 39.5357 135.483 39.2922 134.265 39.0486C133.006 38.7645 132.193 38.5615 131.706 38.3586C131.097 37.9933 130.65 37.6685 130.325 37.2626C130.041 36.7755 129.919 36.2884 129.919 35.7202C129.919 35.1113 130.041 34.543 130.488 33.9747C130.853 33.4876 131.381 33.0817 132.071 32.7976C132.843 32.5134 133.615 32.3917 134.508 32.3917C135.483 32.3917 136.336 32.5134 137.067 32.8788C137.838 33.1629 138.407 33.5688 138.732 34.1371C139.138 34.7054 139.341 35.3142 139.422 36.0043L137.757 36.1261C137.635 35.3548 137.351 34.7865 136.864 34.3806C136.295 33.9747 135.524 33.8124 134.549 33.8124C133.493 33.8124 132.721 33.9341 132.234 34.2995C131.747 34.6648 131.544 35.0707 131.544 35.5578C131.544 36.0449 131.665 36.4102 132.031 36.6537C132.396 36.9379 133.209 37.222 134.671 37.5062C136.052 37.7903 137.026 38.0744 137.514 38.2774C138.285 38.6427 138.854 39.0486 139.179 39.5357C139.585 40.0228 139.747 40.5911 139.747 41.2C139.747 41.8088 139.544 42.4583 139.138 43.0266C138.773 43.5948 138.245 44.0819 137.473 44.3661C136.701 44.7314 135.889 44.8532 134.955 44.8532C133.777 44.8532 132.721 44.7314 131.95 44.3661C131.097 44.0819 130.488 43.5948 130.081 42.9048C129.594 42.2147 129.391 41.5247 129.391 40.7129ZM142.428 44.6096V32.554H144.174V44.6096H142.428ZM146.733 38.7645C146.733 36.7349 147.301 35.2331 148.479 34.0965C149.657 32.9194 151.119 32.3511 153.027 32.3511C154.205 32.3511 155.342 32.6352 156.317 33.2035C157.292 33.6906 157.982 34.4618 158.551 35.436C159.038 36.329 159.322 37.4656 159.322 38.6427C159.322 39.8199 159.038 40.9564 158.47 41.9306C157.982 42.9048 157.129 43.5948 156.236 44.0819C155.18 44.569 154.165 44.8532 153.027 44.8532C151.768 44.8532 150.672 44.569 149.697 44.0008C148.723 43.4325 147.951 42.6612 147.464 41.7682C146.936 40.7535 146.733 39.7793 146.733 38.7645ZM148.479 38.7645C148.479 40.2258 148.885 41.3217 149.819 42.1741C150.672 43.0266 151.687 43.4325 153.027 43.4325C154.286 43.4325 155.383 43.0266 156.236 42.1741C157.089 41.3217 157.495 40.1446 157.495 38.6427C157.495 37.6685 157.292 36.8161 156.926 36.0855C156.561 35.3954 156.033 34.8271 155.342 34.4212C154.652 34.0153 153.88 33.8124 153.027 33.8124C151.768 33.8124 150.713 34.2183 149.9 34.9895C148.966 35.6796 148.479 36.9379 148.479 38.7645ZM161.515 44.6096V32.554H163.262L170.166 42.0118V32.554H171.831V44.6096H170.003L163.099 35.1519V44.6096H161.515ZM173.293 44.6096L178.329 32.554H180.278L185.558 44.6096H183.609L182.065 40.997H176.542L175.08 44.6096H173.293ZM177.029 39.6575H181.497L180.157 36.329C179.75 35.3548 179.385 34.4618 179.182 33.8124C179.06 34.5836 178.776 35.3548 178.491 36.1261L177.029 39.6575ZM186.858 44.6096V32.554H188.604V43.1889H195.102V44.569H186.858V44.6096Z" fill="white"/>
<path d="M193.761 25.8159H54.1361V26.4248H193.761V25.8159Z" fill="white"/>
<path d="M54.1365 25.4507H193.762V26.0596H54.1365V25.4507ZM193.762 25.4507H194.371V25.816H193.762V25.4507ZM194.412 25.816V26.4249H193.153V25.816H194.412ZM194.412 26.4249V26.709H193.802V26.4249H194.412ZM193.762 26.709H54.1365V26.1407H193.762V26.709ZM54.1365 26.709H53.5273V26.4249H54.1365V26.709ZM53.5273 26.4249V25.816H54.7051V26.4249H53.5273ZM53.5273 25.816V25.4507H54.1365V25.816H53.5273Z" fill="white"/>
</svg>
